<svg width="40" height="40" viewBox="0 0 40 40" fill="none" xmlns="http://www.w3.org/2000/svg">
<circle cx="20" cy="20" r="20" fill="#F2F2F2"/>
<path d="M20 -8.74228e-07C23.0783 -1.00878e-06 26.1151 0.71057 28.8738 2.07638C31.6325 3.44219 34.0387 5.42636 35.905 7.87438C37.7713 10.3224 39.0474 13.1682 39.6338 16.1901C40.2202 19.2121 40.1011 22.3286 39.2858 25.2969C38.4705 28.2653 36.981 31.0054 34.9334 33.3039C32.8857 35.6024 30.3351 37.3972 27.4802 38.5485C24.6253 39.6998 21.5432 40.1766 18.4739 39.9417C15.4045 39.7068 12.4309 38.7666 9.7844 37.1942L20 20L20 -8.74228e-07Z" fill="#ED993F"/>
</svg>
