<svg width="40" height="46" viewBox="0 0 40 46" fill="none" xmlns="http://www.w3.org/2000/svg">
<path fill-rule="evenodd" clip-rule="evenodd" d="M11.6663 2.16666C11.6663 1.01607 12.5991 0.0833282 13.7497 0.0833282H26.2497C27.4003 0.0833282 28.333 1.01607 28.333 2.16666C28.333 3.31725 27.4003 4.24999 26.2497 4.24999H22.083V6.33333C22.083 6.36957 22.0821 6.4056 22.0803 6.44138C32.033 7.48115 39.7913 15.897 39.7913 26.125C39.7913 37.0556 30.9303 45.9167 19.9997 45.9167C9.06904 45.9167 0.208008 37.0556 0.208008 26.125C0.208008 15.897 7.96639 7.48115 17.9191 6.44138C17.9173 6.40559 17.9163 6.36957 17.9163 6.33333V4.24999H13.7497C12.5991 4.24999 11.6663 3.31725 11.6663 2.16666ZM19.9997 10.5C11.3702 10.5 4.37467 17.4955 4.37467 26.125C4.37467 34.7544 11.3702 41.75 19.9997 41.75C28.6291 41.75 35.6247 34.7544 35.6247 26.125C35.6247 17.4955 28.6291 10.5 19.9997 10.5ZM19.9997 15.7083C21.1503 15.7083 22.083 16.6411 22.083 17.7917V25.0833H28.333C29.4836 25.0833 30.4163 26.0161 30.4163 27.1667C30.4163 28.3173 29.4836 29.25 28.333 29.25H19.9997C18.8491 29.25 17.9163 28.3173 17.9163 27.1667C17.9163 26.9868 17.9391 26.8123 17.982 26.6458C17.9391 26.4794 17.9163 26.3048 17.9163 26.125V17.7917C17.9163 16.6411 18.8491 15.7083 19.9997 15.7083Z" fill="#00AEA4"/>
</svg>
