<svg width="22" height="22" viewBox="0 0 22 22" fill="none" xmlns="http://www.w3.org/2000/svg">
<path d="M3.05684 6.11368C4.74509 6.11368 6.11368 4.74509 6.11368 3.05684C6.11368 1.36859 4.74509 0 3.05684 0C1.36859 0 0 1.36859 0 3.05684C0 4.74509 1.36859 6.11368 3.05684 6.11368Z" fill="#00AEA4"/>
<path d="M11.0002 6.11368C12.6884 6.11368 14.057 4.74509 14.057 3.05684C14.057 1.36859 12.6884 0 11.0002 0C9.31195 0 7.94336 1.36859 7.94336 3.05684C7.94336 4.74509 9.31195 6.11368 11.0002 6.11368Z" fill="#00AEA4"/>
<path d="M18.9436 6.11368C20.6318 6.11368 22.0004 4.74509 22.0004 3.05684C22.0004 1.36859 20.6318 0 18.9436 0C17.2553 0 15.8867 1.36859 15.8867 3.05684C15.8867 4.74509 17.2553 6.11368 18.9436 6.11368Z" fill="#00AEA4"/>
<path d="M3.05684 14.0568C4.74509 14.0568 6.11368 12.6882 6.11368 11C6.11368 9.31171 4.74509 7.94312 3.05684 7.94312C1.36859 7.94312 0 9.31171 0 11C0 12.6882 1.36859 14.0568 3.05684 14.0568Z" fill="#00AEA4"/>
<path d="M11.0002 14.0568C12.6884 14.0568 14.057 12.6882 14.057 11C14.057 9.31171 12.6884 7.94312 11.0002 7.94312C9.31195 7.94312 7.94336 9.31171 7.94336 11C7.94336 12.6882 9.31195 14.0568 11.0002 14.0568Z" fill="#00AEA4"/>
<path d="M18.9436 14.0568C20.6318 14.0568 22.0004 12.6882 22.0004 11C22.0004 9.31171 20.6318 7.94312 18.9436 7.94312C17.2553 7.94312 15.8867 9.31171 15.8867 11C15.8867 12.6882 17.2553 14.0568 18.9436 14.0568Z" fill="#00AEA4"/>
<path d="M3.05684 22C4.74509 22 6.11368 20.6314 6.11368 18.9432C6.11368 17.2549 4.74509 15.8863 3.05684 15.8863C1.36859 15.8863 0 17.2549 0 18.9432C0 20.6314 1.36859 22 3.05684 22Z" fill="#00AEA4"/>
<path d="M11.0002 22C12.6884 22 14.057 20.6314 14.057 18.9432C14.057 17.2549 12.6884 15.8863 11.0002 15.8863C9.31195 15.8863 7.94336 17.2549 7.94336 18.9432C7.94336 20.6314 9.31195 22 11.0002 22Z" fill="#00AEA4"/>
<path d="M18.9436 22C20.6318 22 22.0004 20.6314 22.0004 18.9432C22.0004 17.2549 20.6318 15.8863 18.9436 15.8863C17.2553 15.8863 15.8867 17.2549 15.8867 18.9432C15.8867 20.6314 17.2553 22 18.9436 22Z" fill="#00AEA4"/>
</svg>
