<svg width="22" height="20" viewBox="0 0 22 20" fill="none" xmlns="http://www.w3.org/2000/svg">
<path fill-rule="evenodd" clip-rule="evenodd" d="M12.5643 0.57364C12.9412 0.420409 13.3733 0.510782 13.6572 0.8022L21.7163 9.07485C22.0874 9.45574 22.0955 10.0604 21.7347 10.4511L13.6756 19.1784C13.3963 19.4809 12.9601 19.5813 12.5767 19.4313C12.1933 19.2814 11.9409 18.9117 11.9409 18.5V14.0313C10.6071 13.908 9.20345 13.9987 7.72539 14.3123C6.18231 14.6397 4.19649 16.0942 1.7736 19.0518C1.49402 19.393 1.02384 19.5108 0.616425 19.3415C0.209008 19.1723 -0.0393718 18.7561 0.00513207 18.3172C0.367116 14.7471 1.73925 11.7239 4.13349 9.29761C6.30796 7.09404 8.92424 5.865 11.9409 5.62623V1.5C11.9409 1.09316 12.1874 0.726872 12.5643 0.57364ZM13.9409 3.95957V6.5835C13.9409 7.1327 13.498 7.57913 12.9488 7.58347C10.0384 7.60648 7.5933 8.63892 5.55707 10.7024C4.3221 11.9539 3.39883 13.3901 2.78988 15.022C4.34194 13.589 5.84823 12.6661 7.31027 12.3559C9.31637 11.9302 11.2499 11.8613 13.1025 12.1646C13.586 12.2438 13.9409 12.6616 13.9409 13.1515V15.9431L19.6219 9.79106L13.9409 3.95957Z" fill="#F26C48"/>
</svg>
