<svg width="22" height="20" viewBox="0 0 22 20" fill="none" xmlns="http://www.w3.org/2000/svg">
<path fill-rule="evenodd" clip-rule="evenodd" d="M18.2929 0.792893C18.6834 0.402369 19.3166 0.402369 19.7071 0.792893L21.7071 2.79289C22.0976 3.18342 22.0976 3.81658 21.7071 4.20711L19.7071 6.20711C19.3166 6.59763 18.6834 6.59763 18.2929 6.20711C17.9024 5.81658 17.9024 5.18342 18.2929 4.79289L18.5858 4.50003L17.5 4.50005C14.4624 4.50005 12 6.96248 12 10C12 13.0376 14.4624 15.5 17.5 15.5L18.5858 15.5L18.2929 15.2071C17.9024 14.8166 17.9024 14.1834 18.2929 13.7929C18.6834 13.4024 19.3166 13.4024 19.7071 13.7929L21.7071 15.7929C22.0976 16.1834 22.0976 16.8166 21.7071 17.2071L19.7071 19.2071C19.3166 19.5976 18.6834 19.5976 18.2929 19.2071C17.9024 18.8166 17.9024 18.1834 18.2929 17.7929L18.5858 17.5L17.5 17.5C14.7215 17.5 12.296 15.9892 11 13.7442C9.70405 15.9892 7.27846 17.5 4.5 17.5H1C0.447715 17.5 0 17.0523 0 16.5C0 15.9478 0.447715 15.5 1 15.5H4.5C7.53757 15.5 10 13.0376 10 10C10 6.96248 7.53757 4.50005 4.5 4.50005H1C0.447715 4.50005 0 4.05233 0 3.50005C0 2.94777 0.447715 2.50005 1 2.50005H4.5C7.27846 2.50005 9.70405 4.01091 11 6.25588C12.296 4.01091 14.7215 2.50005 17.5 2.50005L18.5858 2.50003L18.2929 2.20711C17.9024 1.81658 17.9024 1.18342 18.2929 0.792893Z" fill="#F26C48"/>
</svg>
