<svg width="24" height="20" viewBox="0 0 24 20" fill="none" xmlns="http://www.w3.org/2000/svg">
<path fill-rule="evenodd" clip-rule="evenodd" d="M19.8569 0.792893C20.265 0.402369 20.9267 0.402369 21.3348 0.792893L23.4248 2.79289C23.8329 3.18342 23.8329 3.81658 23.4248 4.20711L21.3348 6.20711C20.9267 6.59763 20.265 6.59763 19.8569 6.20711C19.4488 5.81658 19.4488 5.18342 19.8569 4.79289L20.1629 4.50003L19.0283 4.50005C15.8539 4.50005 13.2806 6.96248 13.2806 10C13.2806 13.0376 15.8539 15.5 19.0283 15.5L20.163 15.5L19.8569 15.2071C19.4488 14.8166 19.4488 14.1834 19.8569 13.7929C20.265 13.4024 20.9267 13.4024 21.3348 13.7929L23.4248 15.7929C23.8329 16.1834 23.8329 16.8166 23.4248 17.2071L21.3348 19.2071C20.9267 19.5976 20.265 19.5976 19.8569 19.2071C19.4488 18.8166 19.4488 18.1834 19.8569 17.7929L20.1629 17.5L19.0283 17.5C16.1247 17.5 13.5899 15.9892 12.2356 13.7442C10.8813 15.9892 8.34645 17.5 5.44287 17.5H1.78527C1.20811 17.5 0.740234 17.0523 0.740234 16.5C0.740234 15.9478 1.20811 15.5 1.78527 15.5H5.44287C8.61722 15.5 11.1905 13.0376 11.1905 10C11.1905 6.96248 8.61722 4.50005 5.44287 4.50005H1.78527C1.20811 4.50005 0.740234 4.05233 0.740234 3.50005C0.740234 2.94777 1.20811 2.50005 1.78527 2.50005H5.44287C8.34645 2.50005 10.8813 4.01091 12.2356 6.25588C13.5899 4.01091 16.1247 2.50005 19.0283 2.50005L20.163 2.50003L19.8569 2.20711C19.4488 1.81658 19.4488 1.18342 19.8569 0.792893Z" fill="#F2F2F2"/>
</svg>
