<svg width="28" height="28" viewBox="0 0 28 28" fill="none" xmlns="http://www.w3.org/2000/svg">
<path fill-rule="evenodd" clip-rule="evenodd" d="M13.1161 0.616117C13.6043 0.127961 14.3957 0.127961 14.8839 0.616117L18.2678 4H22.75C23.4404 4 24 4.55964 24 5.25V9.73223L27.3839 13.1161C27.872 13.6043 27.872 14.3957 27.3839 14.8839L24 18.2678V22.75C24 23.4404 23.4404 24 22.75 24H18.2678L14.8839 27.3839C14.3957 27.872 13.6043 27.872 13.1161 27.3839L9.73223 24H5.25C4.55964 24 4 23.4404 4 22.75V18.2678L0.616117 14.8839C0.127961 14.3957 0.127961 13.6043 0.616117 13.1161L4 9.73223V5.25C4 4.55964 4.55964 4 5.25 4H9.73223L13.1161 0.616117ZM14 3.26777L11.1339 6.13388C10.8995 6.3683 10.5815 6.5 10.25 6.5H6.5V10.25C6.5 10.5815 6.3683 10.8995 6.13388 11.1339L3.26777 14L6.13388 16.8661C6.3683 17.1005 6.5 17.4185 6.5 17.75V21.5H10.25C10.5815 21.5 10.8995 21.6317 11.1339 21.8661L14 24.7322L16.8661 21.8661C17.1005 21.6317 17.4185 21.5 17.75 21.5H21.5V17.75C21.5 17.4185 21.6317 17.1005 21.8661 16.8661L24.7322 14L21.8661 11.1339C21.6317 10.8995 21.5 10.5815 21.5 10.25V6.5H17.75C17.4185 6.5 17.1005 6.3683 16.8661 6.13388L14 3.26777ZM14 11.5C12.6193 11.5 11.5 12.6193 11.5 14C11.5 15.3807 12.6193 16.5 14 16.5C15.3807 16.5 16.5 15.3807 16.5 14C16.5 12.6193 15.3807 11.5 14 11.5ZM9 14C9 11.2386 11.2386 9 14 9C16.7614 9 19 11.2386 19 14C19 16.7614 16.7614 19 14 19C11.2386 19 9 16.7614 9 14Z" fill="#00AEA4"/>
</svg>
