<svg width="46" height="42" viewBox="0 0 46 42" fill="none" xmlns="http://www.w3.org/2000/svg">
<path fill-rule="evenodd" clip-rule="evenodd" d="M25.083 2.25002C25.083 1.00002 24.2497 0.166687 22.9997 0.166687C18.4163 0.166687 14.8747 3.08335 12.3747 5.58335C11.1955 6.76256 9.98035 8.09028 9.18916 9.54169H4.24967C1.95801 9.54169 0.0830078 11.4167 0.0830078 13.7084V28.0834C0.0830078 30.375 1.95801 32.25 4.24967 32.25H9.14551L9.45801 32.875C10.2913 33.9167 11.1247 35.1667 12.3747 36.4167C14.6663 38.9167 18.4163 41.8334 22.9997 41.8334C24.2497 41.8334 25.083 41 25.083 39.75V2.25002ZM12.9997 30.5834C13.6247 31.4167 14.458 32.4584 15.4997 33.5C17.0461 35.2011 18.9368 36.6725 20.9163 37.318V4.67845C18.9368 5.31367 17.0461 6.74529 15.4997 8.29169C14.458 9.54169 13.6247 10.5834 12.9997 11.4167C12.1012 12.3151 11.8635 13.7084 10.2913 13.7084H4.24967V28.0834H10.2913C12.1481 28.0834 12.0212 29.6049 12.9997 30.5834Z" fill="#00AEA4"/>
<path d="M32.7207 10.071C31.8624 9.30468 30.5455 9.37914 29.7791 10.2374C29.0127 11.0956 29.0872 12.4126 29.9454 13.1789C30.4848 13.6606 30.9745 14.2007 31.4049 14.79C32.6662 16.5169 33.4164 18.6635 33.4164 21C33.4164 23.3162 32.679 25.4459 31.4376 27.165C30.9993 27.7718 30.4985 28.3271 29.9454 28.8211C29.0872 29.5874 29.0127 30.9044 29.7791 31.7626C30.5455 32.6209 31.8624 32.6953 32.7207 31.9289C33.499 31.2339 34.2018 30.4542 34.8156 29.6044C36.5568 27.1931 37.583 24.2139 37.583 21C37.583 17.758 36.5388 14.7548 34.7697 12.3325C34.1668 11.507 33.4796 10.7487 32.7207 10.071Z" fill="#00AEA4"/>
<path d="M35.0405 1.49813C34.062 0.892808 32.7781 1.19532 32.1728 2.17382C31.5674 3.15231 31.87 4.43625 32.8485 5.04157C38.195 8.34909 41.7496 14.2603 41.7496 21C41.7496 27.8459 38.0819 33.8374 32.5942 37.1129C31.6062 37.7026 31.2834 38.9816 31.8731 39.9695C32.4628 40.9575 33.7418 41.2804 34.7298 40.6907C41.4248 36.6945 45.9163 29.3728 45.9163 21C45.9163 12.7574 41.5631 5.53319 35.0405 1.49813Z" fill="#00AEA4"/>
</svg>
